<svg width="9" height="11" viewBox="0 0 9 11" fill="none" xmlns="http://www.w3.org/2000/svg">
<path d="M7.97283 0.75H0.537769C0.439174 0.75 0.344617 0.789509 0.2749 0.859835C0.205182 0.930161 0.166016 1.02554 0.166016 1.125V10.5C0.166027 10.5662 0.183405 10.6312 0.216385 10.6884C0.249365 10.7456 0.296772 10.793 0.353789 10.8258C0.410806 10.8585 0.475402 10.8755 0.541015 10.8749C0.606629 10.8743 0.670922 10.8563 0.727363 10.8225L4.2553 8.68875L7.78324 10.8225C7.84062 10.8568 7.90611 10.875 7.97283 10.875C8.0367 10.8748 8.09943 10.858 8.15499 10.8263C8.21242 10.7937 8.26023 10.7463 8.29354 10.689C8.32686 10.6317 8.34447 10.5664 8.34459 10.5V1.125C8.34459 1.02554 8.30542 0.930161 8.2357 0.859835C8.16599 0.789509 8.07143 0.75 7.97283 0.75ZM7.60108 1.5V3H0.909522V1.5H7.60108ZM4.4449 7.9275C4.38838 7.89459 4.32428 7.87726 4.25902 7.87726C4.19376 7.87726 4.12966 7.89459 4.07314 7.9275L0.909522 9.83625V3.75H7.60108V9.83625L4.4449 7.9275Z" fill="white"/>
</svg>
