<svg width="343" height="104" viewBox="0 0 343 104" fill="none" xmlns="http://www.w3.org/2000/svg">
<g clip-path="url(#clip0_17_1527)">
<path d="M3.22516e-05 21.9247C-0.00211492 21.4136 0.102972 20.9078 0.308592 20.4393C0.512594 19.9973 0.798428 19.5974 1.1512 19.2604C1.49651 18.9293 1.89836 18.6618 2.33797 18.4705C2.81207 18.2756 3.3202 18.1755 3.8333 18.1758C4.85287 18.177 5.8335 18.5649 6.57473 19.2604C6.92008 19.5985 7.19792 19.9985 7.3936 20.4393C7.58979 20.9103 7.69061 21.415 7.6903 21.9247V35.0341L25.4206 19.2368C26.1132 18.5565 27.0457 18.1716 28.0197 18.164C28.5168 18.1698 29.0082 18.2698 29.4675 18.4587C29.9299 18.6511 30.3524 18.9269 30.7136 19.2722C31.081 19.6298 31.3823 20.0488 31.6037 20.51C31.8149 20.9854 31.924 21.4994 31.924 22.019C31.924 22.5387 31.8149 23.0526 31.6037 23.528C31.4029 24.0152 31.104 24.4564 30.7255 24.8248L13.3749 40.2449L31.7698 57.1975C32.1495 57.551 32.4419 57.9867 32.6243 58.4707C32.7966 58.9105 32.8852 59.3782 32.8854 59.85C32.8839 60.3531 32.7789 60.8506 32.5768 61.3119C32.3719 61.7715 32.0911 62.1938 31.7461 62.5615C31.4023 62.9129 31.001 63.2039 30.5593 63.4221C30.0707 63.6409 29.5406 63.7535 29.0047 63.7522C28.5158 63.7519 28.0319 63.6558 27.5805 63.4693C27.1049 63.2799 26.6788 62.9856 26.3344 62.6087L7.71403 45.5264V59.9797C7.71435 60.4894 7.61353 60.9942 7.41734 61.4651C7.22589 61.9082 6.94752 62.309 6.59847 62.644C6.25721 62.9831 5.85457 63.2551 5.4117 63.4457C4.9331 63.6395 4.42132 63.7396 3.9045 63.7404C3.37943 63.7454 2.85874 63.6452 2.37357 63.4457C1.93098 63.2546 1.52842 62.9827 1.1868 62.644C0.813369 62.3063 0.51495 61.8949 0.310606 61.4362C0.106262 60.9774 0.000484913 60.4814 3.22516e-05 59.9797V21.9247Z" fill="#D197FF"/>
<path d="M37.2292 22.8207C37.2236 22.265 37.3369 21.7145 37.5615 21.2056C37.7676 20.708 38.07 20.2554 38.4516 19.8734C38.8364 19.4973 39.2868 19.1938 39.7808 18.9774C40.3051 18.7529 40.8712 18.6404 41.4422 18.6473C42.0017 18.6404 42.5562 18.7529 43.0681 18.9774C43.5657 19.1937 44.0199 19.4972 44.4091 19.8734C44.7904 20.2605 45.0997 20.7115 45.323 21.2056C45.5516 21.7136 45.6689 22.2641 45.6671 22.8207C45.6713 23.3926 45.5541 23.959 45.323 24.4829C45.0996 24.9734 44.7902 25.4205 44.4091 25.8033C44.0263 26.1872 43.5705 26.4918 43.0681 26.6993C42.5562 26.9237 42.0017 27.0363 41.4422 27.0293C40.8865 27.0309 40.336 26.923 39.8226 26.7117C39.3092 26.5005 38.843 26.1902 38.4512 25.7987C38.0594 25.4073 37.7496 24.9425 37.5398 24.4313C37.3301 23.9201 37.2245 23.3727 37.2292 22.8207ZM37.5378 34.2796C37.5393 33.7727 37.6442 33.2714 37.8463 32.806C38.0578 32.3654 38.3473 31.9661 38.7008 31.6271C39.0669 31.2793 39.493 30.9998 39.9588 30.8018C40.4547 30.5771 40.9921 30.4567 41.5372 30.4482C42.0516 30.446 42.5609 30.5504 43.0325 30.7547C43.475 30.9564 43.877 31.236 44.2193 31.5799C44.5507 31.9245 44.8197 32.3233 45.0144 32.7588C45.2071 33.2267 45.3078 33.7269 45.3111 34.2324V60.1683C45.3114 60.678 45.2106 61.1828 45.0144 61.6538C44.822 62.0934 44.5483 62.4933 44.2074 62.8327C43.8683 63.1773 43.4653 63.4535 43.0206 63.6461C42.5482 63.8463 42.0389 63.9467 41.5253 63.9408C41.0118 63.9457 40.5027 63.8453 40.03 63.6461C39.5841 63.4556 39.1807 63.1791 38.8432 62.8327C38.4879 62.4952 38.1982 62.0955 37.9887 61.6538C37.7831 61.1853 37.678 60.6794 37.6802 60.1683L37.5378 34.2796Z" fill="#D197FF"/>
<path d="M99.3565 56.0775C99.7258 56.0763 100.093 56.0248 100.448 55.9243C100.82 55.819 101.172 55.6559 101.493 55.4409C101.809 55.2153 102.068 54.921 102.252 54.5803C102.439 54.1858 102.536 53.7551 102.536 53.3189C102.536 52.8828 102.439 52.452 102.252 52.0575C102.074 51.7359 101.817 51.4642 101.505 51.2676C101.182 51.0678 100.829 50.9205 100.46 50.8314C100.072 50.7376 99.673 50.694 99.2734 50.7017H93.3396C91.9636 50.7144 90.6019 50.4246 89.352 49.8529C88.1436 49.2864 87.0621 48.4846 86.1715 47.4951C85.2951 46.5358 84.5961 45.4303 84.1065 44.2296C83.5977 42.9746 83.3397 41.6332 83.347 40.2802C83.3407 38.9747 83.6075 37.682 84.1302 36.4842C84.6367 35.3114 85.366 34.2467 86.2783 33.3483C87.2024 32.4615 88.2851 31.7538 89.4707 31.2616C90.7049 30.7396 92.0338 30.4748 93.3752 30.4835H104.768C105.759 30.4625 106.723 30.8069 107.474 31.4502C107.871 31.789 108.185 32.214 108.391 32.6923C108.596 33.1706 108.689 33.6895 108.661 34.2089C108.669 34.7537 108.568 35.2946 108.364 35.8004C108.178 36.2405 107.908 36.6408 107.569 36.9793C107.229 37.3228 106.826 37.5989 106.382 37.7927C105.933 37.9873 105.448 38.0876 104.958 38.0875H93.482C93.1611 38.0856 92.8432 38.1483 92.5474 38.2719C92.2516 38.3955 91.9842 38.5774 91.7612 38.8066C91.5321 39.0361 91.3512 39.3085 91.2289 39.608C91.1067 39.9075 91.0456 40.2282 91.0491 40.5514C91.0289 40.8925 91.088 41.2336 91.2218 41.5485C91.3555 41.8633 91.5604 42.1433 91.8205 42.3669C92.2741 42.7804 92.8663 43.0115 93.482 43.0153H100.08C101.489 42.9978 102.883 43.2918 104.163 43.8759C105.371 44.4285 106.463 45.2047 107.379 46.163C108.762 47.6421 109.696 49.4792 110.074 51.4627C110.452 53.4462 110.258 55.4954 109.515 57.3743C109.035 58.5815 108.326 59.686 107.427 60.6281C106.519 61.5704 105.434 62.3272 104.234 62.8562C102.957 63.4112 101.581 63.7039 100.187 63.7168H86.302C85.8224 63.7303 85.3454 63.6415 84.9032 63.4565C84.4611 63.2714 84.0639 62.9944 83.7386 62.644C83.0601 61.8596 82.7078 60.8479 82.7536 59.8147C82.7251 59.3129 82.7976 58.8106 82.9667 58.3369C83.1358 57.8633 83.3982 57.4279 83.7386 57.056C84.0729 56.7221 84.4734 56.4606 84.9146 56.2881C85.3558 56.1156 85.8282 56.0359 86.302 56.054L99.3565 56.0775Z" fill="#D197FF"/>
<path d="M152.969 39.5409C151.857 38.3947 150.522 37.4981 149.051 36.9089C147.627 36.3407 146.11 36.0525 144.581 36.0592C143.027 36.0505 141.488 36.3647 140.057 36.9828C137.249 38.1923 135.011 40.4669 133.814 43.3274C133.206 44.8009 132.894 46.3834 132.894 47.982C132.894 49.5805 133.206 51.163 133.814 52.6365C134.391 54.0549 135.226 55.3491 136.275 56.4507C137.361 57.5832 138.66 58.4814 140.093 59.0922C141.526 59.7029 143.064 60.0138 144.617 60.0063C146.115 60.0141 147.602 59.745 149.006 59.2121C150.473 58.6166 151.799 57.71 152.897 56.5523C153.172 56.2726 153.506 56.0609 153.874 55.9335C154.227 55.7985 154.601 55.7297 154.978 55.7304C155.376 55.7269 155.77 55.8087 156.136 55.9705C156.472 56.1309 156.778 56.3496 157.041 56.6169C157.301 56.8809 157.507 57.1948 157.647 57.5405C157.793 57.8974 157.867 58.2805 157.864 58.6672C157.865 59.0596 157.791 59.4485 157.647 59.8123C157.51 60.1599 157.304 60.4745 157.041 60.7359C155.368 62.4581 153.366 63.81 151.159 64.707C149.035 65.5588 146.773 65.9973 144.491 66C142.925 66.0027 141.366 65.7852 139.858 65.3535C138.399 64.9202 137.001 64.2996 135.696 63.5065C133.094 61.9453 130.939 59.7166 129.443 57.0418C128.66 55.6964 128.052 54.2529 127.633 52.7474C127.208 51.1995 126.995 49.5989 127 47.9912C126.992 45.6511 127.435 43.3322 128.303 41.1663C129.143 39.0327 130.371 37.0805 131.922 35.4128C133.538 33.7358 135.463 32.4019 137.587 31.4878C139.814 30.4825 142.227 29.9755 144.663 30.0009C146.988 29.9947 149.292 30.4628 151.437 31.3779C153.583 32.293 155.528 33.6366 157.158 35.3297C157.696 35.8821 157.999 36.6288 158 37.4076C158.004 37.7993 157.924 38.1871 157.765 38.5435C157.608 38.8915 157.387 39.2052 157.113 39.4671C156.838 39.7403 156.516 39.9595 156.163 40.1135C155.802 40.2813 155.41 40.3664 155.014 40.3629C154.643 40.3598 154.276 40.2911 153.928 40.1597C153.563 40.0374 153.234 39.8249 152.969 39.5409Z" fill="#6A46F8"/>
<path d="M163 33.3115C162.996 32.8705 163.077 32.4337 163.236 32.0298C163.383 31.6349 163.598 31.2757 163.869 30.9726C164.146 30.674 164.469 30.4332 164.823 30.2616C165.193 30.0889 165.59 30 165.992 30C166.393 30 166.79 30.0889 167.16 30.2616C167.512 30.4333 167.832 30.6742 168.105 30.9726C168.376 31.2798 168.596 31.6377 168.755 32.0298C168.918 32.433 169.001 32.8699 169 33.3115C169.003 33.7654 168.92 34.2149 168.755 34.6306C168.596 35.0199 168.376 35.3747 168.105 35.6785C167.836 35.9829 167.515 36.2247 167.16 36.3895C166.79 36.5621 166.393 36.6511 165.992 36.6511C165.59 36.6511 165.193 36.5621 164.823 36.3895C164.278 36.134 163.815 35.7051 163.49 35.1572C163.166 34.6093 162.995 33.9669 163 33.3115ZM163.22 42.4051C163.219 42.0017 163.297 41.6028 163.447 41.2357C163.592 40.8846 163.795 40.5671 164.047 40.3001C164.308 40.0261 164.611 39.8046 164.941 39.6452C165.283 39.4859 165.65 39.4032 166.021 39.402C166.387 39.4003 166.749 39.4831 167.084 39.6452C167.4 39.8029 167.687 40.025 167.928 40.3001C168.167 40.5712 168.358 40.8882 168.494 41.2357C168.635 41.6056 168.706 42.0035 168.705 42.4051V62.9874C168.708 63.7856 168.426 64.5528 167.92 65.1204C167.681 65.3972 167.394 65.6169 167.076 65.766C166.743 65.9241 166.384 66.0038 166.021 65.9999C165.653 66.0037 165.289 65.9241 164.949 65.766C164.617 65.6203 164.316 65.4006 164.063 65.1204C163.811 64.8548 163.607 64.537 163.464 64.1849C163.312 63.8149 163.234 63.4127 163.236 63.0061L163.22 42.4051Z" fill="#6A46F8"/>
<path d="M173 52.7516C172.986 51.0545 173.326 49.3723 173.999 47.8077C174.648 46.2983 175.585 44.9235 176.76 43.7567C177.93 42.5844 179.322 41.6462 180.86 40.9947C182.451 40.3251 184.168 39.9864 185.901 40.0004C187.649 39.9901 189.381 40.3285 190.99 40.9947C194.126 42.2882 196.627 44.7209 197.963 47.78C198.657 49.3395 199.01 51.0235 199 52.724V63.0355C199.004 63.4339 198.924 63.829 198.764 64.1955C198.619 64.5434 198.404 64.8595 198.133 65.1251C197.861 65.3907 197.537 65.6005 197.181 65.7422C196.805 65.8944 196.401 65.9726 195.994 65.9724C195.583 65.9717 195.177 65.8935 194.797 65.7422C194.429 65.5932 194.09 65.3812 193.798 65.1162C193.504 64.8503 193.269 64.5286 193.107 64.1709C192.945 63.8131 192.859 63.4267 192.856 63.0355V52.77C192.843 51.865 192.641 50.9719 192.262 50.1461C191.903 49.3464 191.395 48.619 190.764 48.001C190.123 47.3877 189.372 46.8946 188.549 46.5463C187.712 46.1851 186.807 46.0001 185.892 46.0032C184.966 45.9929 184.048 46.1717 183.197 46.5279C182.391 46.8815 181.662 47.3814 181.048 48.001C180.435 48.615 179.952 49.3408 179.625 50.1369C179.284 50.9777 179.111 51.8748 179.116 52.7792V63.0631C179.121 63.4615 179.041 63.8566 178.881 64.2231C178.739 64.5699 178.524 64.8836 178.249 65.1438C177.981 65.4116 177.661 65.6245 177.307 65.7698C176.943 65.9191 176.552 65.9973 176.157 66C175.741 65.9983 175.329 65.9202 174.942 65.7698C174.574 65.6227 174.236 65.414 173.943 65.153C173.66 64.8881 173.427 64.5764 173.255 64.2323C173.085 63.8682 172.998 63.4724 173 63.0723V52.7516Z" fill="#6A46F8"/>
<path d="M209.848 55.6923C210.078 56.3638 210.42 56.994 210.861 57.5573C211.29 58.1158 211.802 58.6095 212.381 59.0219C212.969 59.4339 213.617 59.7589 214.304 59.9862C215.018 60.2165 215.765 60.3333 216.518 60.3319C217.199 60.3435 217.879 60.2763 218.544 60.1317C219.076 59.9953 219.585 59.7838 220.054 59.504C220.587 59.1679 221.202 58.9734 221.837 58.94C222.245 58.9408 222.648 59.0277 223.018 59.1947C223.373 59.3619 223.692 59.5936 223.957 59.877C224.226 60.1647 224.439 60.4977 224.585 60.8595C224.741 61.2227 224.821 61.6124 224.82 62.0058C224.823 62.6056 224.61 63.1877 224.219 63.6524C223.75 64.1954 223.16 64.6278 222.493 64.9169C221.655 65.2964 220.769 65.5656 219.857 65.7174C218.743 65.9139 217.613 66.0084 216.48 65.9994C214.681 66.0081 212.9 65.6582 211.246 64.9714C209.647 64.3119 208.19 63.3677 206.95 62.1877C205.721 61.0113 204.74 59.6148 204.06 58.0758C203.346 56.4867 202.985 54.7695 203 53.036C202.992 51.276 203.366 49.534 204.098 47.9234C204.777 46.3788 205.758 44.9763 206.987 43.7932C208.231 42.6193 209.687 41.6786 211.283 41.0186C212.93 40.3463 214.698 40 216.485 40C218.271 40 220.04 40.3463 221.686 41.0186C223.267 41.6663 224.711 42.5916 225.945 43.7478C227.172 44.9223 228.159 46.3113 228.853 47.8415C229.582 49.4258 229.972 51.1374 229.998 52.8722C230.014 53.2524 229.948 53.6317 229.804 53.9858C229.66 54.3399 229.442 54.6609 229.163 54.9282C228.576 55.4493 227.8 55.7241 227.005 55.6923H209.848ZM223.731 50.7435C223.52 50.0104 223.181 49.318 222.728 48.6966C222.289 48.0832 221.754 47.5399 221.142 47.0864C220.515 46.6285 219.815 46.2721 219.069 46.0311C218.279 45.7807 217.452 45.6548 216.621 45.6582C215.793 45.6549 214.971 45.7903 214.191 46.0584C213.465 46.3155 212.785 46.6807 212.175 47.141C211.57 47.5909 211.047 48.135 210.627 48.7512C210.206 49.362 209.889 50.0348 209.689 50.7435H223.731Z" fill="#6A46F8"/>
<path d="M233 49.2781C232.991 48.034 233.243 46.8014 233.741 45.6574C234.217 44.5558 234.904 43.5548 235.766 42.7092C236.635 41.87 237.655 41.1981 238.776 40.7283C239.933 40.2385 241.182 39.9906 242.442 40.0005C243.631 39.9934 244.811 40.2189 245.911 40.6638C246.999 41.1002 247.999 41.7242 248.864 42.5065C249.704 41.7235 250.682 41.0989 251.752 40.6638C252.867 40.2146 254.062 39.989 255.268 40.0005C256.555 39.9874 257.832 40.2352 259.018 40.7283C260.164 41.1968 261.213 41.8683 262.112 42.7092C262.997 43.5536 263.712 44.5537 264.222 45.6574C264.744 46.7948 265.01 48.0301 265 49.2781V63.0518C265.005 63.4515 264.922 63.8476 264.756 64.2126C264.594 64.5575 264.368 64.8699 264.09 65.134C263.813 65.4091 263.483 65.6274 263.119 65.776C262.756 65.9247 262.365 66.0008 261.971 66C261.56 65.9993 261.153 65.9212 260.771 65.7697C260.421 65.6174 260.103 65.4017 259.834 65.134C259.551 64.8594 259.328 64.5321 259.177 64.1713C259.025 63.8105 258.949 63.4236 258.952 63.0334V49.2966C258.913 48.8697 258.792 48.4539 258.596 48.0712C258.398 47.6923 258.127 47.3545 257.799 47.0762C257.466 46.7977 257.089 46.5737 256.683 46.4128C256.271 46.2539 255.832 46.1726 255.39 46.1733C254.965 46.1716 254.544 46.253 254.152 46.4128C253.772 46.5747 253.424 46.799 253.121 47.0762C252.824 47.3415 252.574 47.6528 252.38 47.9975C252.19 48.3656 252.072 48.7657 252.033 49.1768C252.047 49.2746 252.047 49.3738 252.033 49.4716V55.6168C252.035 56.0174 251.959 56.4147 251.808 56.7868C251.653 57.1311 251.434 57.4436 251.161 57.7082C250.891 57.9748 250.573 58.1903 250.224 58.3439C249.86 58.4997 249.467 58.5782 249.07 58.5742C248.662 58.5772 248.257 58.4988 247.88 58.3439C247.53 58.1895 247.213 57.9741 246.942 57.7082C246.67 57.4455 246.453 57.1323 246.304 56.7868C246.146 56.4166 246.066 56.0184 246.07 55.6168V49.6282L246.014 49.4163V49.2966C245.997 48.8705 245.888 48.4529 245.695 48.0712C245.508 47.6977 245.257 47.3582 244.954 47.067C244.648 46.7779 244.293 46.544 243.904 46.376C243.509 46.2025 243.081 46.1145 242.648 46.118C241.834 46.1027 241.041 46.3724 240.411 46.8787C239.78 47.385 239.354 48.095 239.207 48.882C239.207 48.9741 239.207 49.057 239.254 49.1307C239.301 49.2044 239.254 49.2781 239.254 49.3703L239.141 63.0149C239.146 63.4147 239.063 63.8107 238.898 64.1758C238.739 64.5202 238.516 64.8326 238.241 65.0971C237.97 65.362 237.652 65.5773 237.304 65.7328C236.945 65.8831 236.559 65.9614 236.169 65.9631C235.761 65.9625 235.357 65.8843 234.979 65.7328C234.628 65.5815 234.309 65.3657 234.041 65.0971C233.763 64.835 233.54 64.522 233.385 64.1758C233.219 63.8107 233.136 63.4147 233.141 63.0149L233 49.2781Z" fill="#6A46F8"/>
<path d="M281.514 65.9997C279.711 66.0087 277.926 65.6584 276.272 64.971C273.037 63.6422 270.46 61.1714 269.074 58.0704C268.365 56.4725 268 54.7541 268 53.0179C268 51.2817 268.365 49.5633 269.074 47.9654C269.76 46.4209 270.746 45.0153 271.979 43.8232C273.21 42.6358 274.667 41.6869 276.272 41.0284C277.932 40.3498 279.719 40 281.524 40C283.329 40 285.115 40.3498 286.775 41.0284C288.38 41.6869 289.838 42.6358 291.068 43.8232C292.298 45.0157 293.281 46.4213 293.964 47.9654C294.665 49.5673 295.018 51.2898 294.999 53.027V62.9045C295.003 63.3149 294.916 63.7215 294.743 64.097C294.58 64.4359 294.354 64.7442 294.078 65.0074C293.807 65.2804 293.485 65.5027 293.128 65.6629C292.738 65.8215 292.318 65.902 291.894 65.8995C291.209 65.9238 290.537 65.7177 289.995 65.3169C289.485 64.931 289.119 64.3979 288.95 63.7966C287.882 64.4858 286.723 65.0339 285.503 65.4262C284.212 65.8154 282.867 66.0089 281.514 65.9997ZM281.514 60.0823C282.493 60.0852 283.463 59.8962 284.363 59.527C285.235 59.166 286.027 58.6501 286.699 58.0067C287.362 57.3615 287.89 56.6015 288.257 55.7672C288.639 54.9036 288.833 53.9742 288.826 53.0361C288.831 52.0982 288.637 51.1692 288.257 50.305C287.888 49.4747 287.359 48.7181 286.699 48.0746C286.032 47.4283 285.238 46.9147 284.363 46.5634C283.461 46.2015 282.492 46.0158 281.514 46.0172C280.305 46.0232 279.116 46.3147 278.052 46.866C276.988 47.4172 276.083 48.2112 275.415 49.1778C274.748 50.1444 274.339 51.2538 274.225 52.4078C274.111 53.5619 274.295 54.7251 274.762 55.7945C275.499 57.4834 276.892 58.8316 278.646 59.5543C279.548 59.9164 280.518 60.0961 281.495 60.0823H281.514Z" fill="#6A46F8"/>
<path d="M78.7258 61.785C78.7258 63.7349 78.3589 65.5691 77.6253 67.2874C76.8723 69.0057 75.8587 70.5019 74.5845 71.7762C73.2909 73.0697 71.7947 74.0833 70.0957 74.817C68.3774 75.5699 66.5432 75.9464 64.5933 75.9464C62.5854 75.9464 60.9829 75.6182 59.7859 74.9618C58.5889 74.3247 57.6236 73.3979 56.8899 72.1816V82.8389C56.8899 83.3023 56.8127 83.7367 56.6582 84.1421C56.5038 84.5475 56.2817 84.8951 55.9921 85.1847C55.7025 85.4936 55.3647 85.7349 54.9785 85.9087C54.5924 86.0824 54.1677 86.1693 53.7043 86.1693C53.2409 86.1693 52.8162 86.0824 52.4301 85.9087C52.0246 85.7349 51.6771 85.4936 51.3875 85.1847C51.0979 84.8951 50.8759 84.5475 50.7214 84.1421C50.5477 83.7367 50.4608 83.3023 50.4608 82.8389V61.6402C50.4801 59.7095 50.8662 57.8947 51.6192 56.1957C52.3721 54.516 53.3857 53.039 54.66 51.7648C55.9342 50.5099 57.4305 49.5156 59.1488 48.7819C60.8478 48.0483 62.6626 47.6814 64.5933 47.6814C66.5432 47.6814 68.3774 48.0483 70.0957 48.7819C71.7947 49.5349 73.2909 50.5485 74.5845 51.8227C75.8587 53.097 76.8723 54.5836 77.6253 56.2826C78.3589 58.0009 78.7258 59.835 78.7258 61.785ZM72.2677 61.785C72.2677 60.7231 72.065 59.7288 71.6595 58.8021C71.2541 57.8754 70.7038 57.0645 70.0088 56.3694C69.3138 55.6744 68.5029 55.1242 67.5762 54.7187C66.6494 54.3133 65.6551 54.1106 64.5933 54.1106C63.5121 54.1106 62.5081 54.3133 61.5814 54.7187C60.6354 55.1242 59.8149 55.6744 59.1198 56.3694C58.4248 57.0645 57.8842 57.8754 57.4981 58.8021C57.0926 59.7288 56.8899 60.7231 56.8899 61.785C56.8899 62.8468 57.0926 63.8411 57.4981 64.7679C57.9035 65.6946 58.4537 66.5055 59.1488 67.2005C59.8438 67.8955 60.6644 68.4361 61.6104 68.8223C62.5371 69.2277 63.5314 69.4304 64.5933 69.4304C65.6358 69.4304 66.6301 69.2277 67.5762 68.8223C68.5029 68.4361 69.3138 67.8955 70.0088 67.2005C70.7038 66.5055 71.2541 65.6946 71.6595 64.7679C72.065 63.8411 72.2677 62.8468 72.2677 61.785Z" fill="#6A46F8"/>
<path d="M50.2662 33.3023C50.2662 31.3647 50.6307 29.5422 51.3597 27.8348C52.1079 26.1274 53.1151 24.6406 54.3812 23.3744C55.6666 22.0891 57.1534 21.0819 58.8416 20.3529C60.549 19.6047 62.3715 19.2306 64.3091 19.2306C66.3043 19.2306 67.8966 19.5567 69.0861 20.209C70.2755 20.8421 71.2347 21.7629 71.9637 22.9715V12.3818C71.9637 11.9213 72.0405 11.4897 72.1939 11.0868C72.3474 10.6839 72.568 10.3386 72.8558 10.0509C73.1436 9.7439 73.4793 9.5041 73.863 9.33144C74.2467 9.15878 74.6687 9.07245 75.1291 9.07245C75.5896 9.07245 76.0116 9.15878 76.3953 9.33144C76.7982 9.5041 77.1435 9.7439 77.4313 10.0509C77.719 10.3386 77.9397 10.6839 78.0931 11.0868C78.2658 11.4897 78.3521 11.9213 78.3521 12.3818V33.4462C78.3329 35.3647 77.9493 37.168 77.2011 38.8562C76.4529 40.5253 75.4457 41.9929 74.1795 43.259C72.9134 44.506 71.4266 45.494 69.7191 46.223C68.0309 46.952 66.2276 47.3165 64.3091 47.3165C62.3715 47.3165 60.549 46.952 58.8416 46.223C57.1534 45.4748 55.6666 44.4677 54.3812 43.2015C53.1151 41.9353 52.1079 40.4581 51.3597 38.7699C50.6307 37.0625 50.2662 35.24 50.2662 33.3023ZM56.6834 33.3023C56.6834 34.3575 56.8848 35.3455 57.2877 36.2663C57.6905 37.1872 58.2373 37.9929 58.9279 38.6836C59.6186 39.3742 60.4243 39.921 61.3452 40.3238C62.266 40.7267 63.254 40.9281 64.3091 40.9281C65.3835 40.9281 66.3811 40.7267 67.3019 40.3238C68.242 39.921 69.0573 39.3742 69.7479 38.6836C70.4386 37.9929 70.9757 37.1872 71.3594 36.2663C71.7623 35.3455 71.9637 34.3575 71.9637 33.3023C71.9637 32.2472 71.7623 31.2592 71.3594 30.3384C70.9565 29.4175 70.4098 28.6118 69.7191 27.9211C69.0285 27.2305 68.2132 26.6933 67.2731 26.3096C66.3523 25.9068 65.3643 25.7053 64.3091 25.7053C63.2732 25.7053 62.2852 25.9068 61.3452 26.3096C60.4243 26.6933 59.6186 27.2305 58.9279 27.9211C58.2373 28.6118 57.6905 29.4175 57.2877 30.3384C56.8848 31.2592 56.6834 32.2472 56.6834 33.3023Z" fill="#D197FF"/>
</g>
<defs>
<clipPath id="clip0_17_1527">
<rect width="343" height="114" fill="white" transform="translate(0 -10)"/>
</clipPath>
</defs>
</svg>
