<svg width="24" height="24" viewBox="0 0 24 24" fill="none" xmlns="http://www.w3.org/2000/svg">
<path fill-rule="evenodd" clip-rule="evenodd" d="M15.7218 17.6916C14.1342 18.8667 19.071 13.8183 17.6662 15.7373C17.7014 15.7345 17.6362 15.8409 17.4178 16.1077C17.4178 16.1077 21.1696 19.8342 23.0114 21.7308C23.6507 22.4222 22.4971 23.8022 21.7134 23.0817C20.0456 21.4636 16.0992 17.4422 16.0931 17.4356L15.7218 17.6916Z" fill="#D197FF"/>
<path d="M10.2091 19.5759C12.6231 19.5525 15.0128 18.5526 16.7313 16.8544C18.7722 14.8373 19.8231 11.8533 19.4566 9.00421C18.8284 4.12218 14.815 0.809052 10.1491 0.809052C6.60391 0.809052 3.15859 3.02671 1.64734 6.24233C0.490469 8.70421 0.488125 11.6766 1.64734 14.1426C3.14781 17.3358 6.53688 19.5417 10.0886 19.5759C10.1289 19.5759 10.1692 19.5759 10.2091 19.5759ZM10.0984 18.0117C6.49328 17.977 3.12953 15.1889 2.46063 11.6142C1.98906 9.09421 2.87922 6.36702 4.73359 4.57733C6.89828 2.48718 10.3009 1.78733 13.1303 2.97186C15.6616 4.03171 17.5563 6.49265 17.9055 9.2039C18.2045 11.528 17.3706 13.9636 15.7319 15.6412C14.2942 17.1131 12.2781 17.9916 10.1992 18.0117C10.1655 18.0117 10.1322 18.0117 10.0984 18.0117Z" fill="#D197FF"/>
</svg>
